{"accessors" : [{"bufferView" : 0, "byteOffset" : 0, "componentType" : 5123, "count" : 16788, "type" : "SCALAR", "max" : [16403], "min" : [0]}, {"bufferView" : 1, "byteOffset" : 0, "componentType" : 5126, "count" : 16404, "type" : "VEC3", "max" : [1.134701132774353, 0.514013409614563, 0.06667187809944153], "min" : [-0.06763839721679688, 0.5019891858100891, -1.135082721710205], "name" : "POSITION"}, {"bufferView" : 1, "byteOffset" : 12, "componentType" : 5126, "count" : 16404, "type" : "VEC3", "max" : [0.9987637996673584, 1.0000044107437134, 0.9999392032623291], "min" : [-0.9983030557632446, -1.0000044107437134, -0.9970225691795349], "name" : "NORMAL"}, {"bufferView" : 1, "byteOffset" : 24, "componentType" : 5126, "count" : 16404, "type" : "VEC2", "max" : [47.78443908691406, 47.78443908691406], "min" : [-47.78444290161133, -47.784427642822266], "name" : "TEXCOORD_0"}, {"bufferView" : 0, "byteOffset" : 33576, "componentType" : 5123, "count" : 8640, "type" : "SCALAR", "max" : [8374], "min" : [0]}, {"bufferView" : 2, "byteOffset" : 0, "componentType" : 5126, "count" : 8375, "type" : "VEC3", "max" : [1.0670623779296875, 0.5048766136169434, -1.4467195441625336E-08], "min" : [0, -4.4242867147659126E-08, -1.067062258720398], "name" : "POSITION"}, {"bufferView" : 2, "byteOffset" : 12, "componentType" : 5126, "count" : 8375, "type" : "VEC3", "max" : [0.9998105764389038, 1.0000042915344238, 0.9999842643737793], "min" : [-0.9998106360435486, -1.0000042915344238, -0.9999842643737793], "name" : "NORMAL"}, {"bufferView" : 2, "byteOffset" : 24, "componentType" : 5126, "count" : 8375, "type" : "VEC2", "max" : [41.33710861206055, 34.61952590942383], "min" : [-41.337039947509766, -55.21680450439453], "name" : "TEXCOORD_0"}], "asset" : {"generator" : "Aspose.3D 21.10", "version" : "2.0"}, "buffers" : [{"uri" : "data:application/octet-stream;base64,", "byteLength" : 864564}], "bufferViews" : [{"buffer" : 0, "byteOffset" : 0, "byteLength" : 50856, "target" : 34963}, {"buffer" : 0, "byteOffset" : 50860, "byteLength" : 537216, "byteStride" : 32, "target" : 34962}, {"buffer" : 0, "byteOffset" : 588080, "byteLength" : 276480, "byteStride" : 32, "target" : 34962}], "materials" : [{"name" : "", "pbrMetallicRoughness" : {"baseColorFactor" : [1, 1, 1, 1], "metallicFactor" : 0, "roughnessFactor" : 0}, "emissiveFactor" : [0, 0, 0], "alphaMode" : "OPAQUE", "doubleSided" : false}, {"name" : "", "pbrMetallicRoughness" : {"baseColorFactor" : [0.9568627450980389, 0.7411764705882351, 0.458823529411765, 1], "metallicFactor" : 0, "roughnessFactor" : 0}, "emissiveFactor" : [0, 0, 0], "alphaMode" : "OPAQUE", "doubleSided" : false}], "meshes" : [{"primitives" : [{"attributes" : {"POSITION" : 1, "NORMAL" : 2, "TEXCOORD_0" : 3}, "indices" : 0, "material" : 0, "mode" : 4}], "name" : ""}, {"primitives" : [{"attributes" : {"POSITION" : 5, "NORMAL" : 6, "TEXCOORD_0" : 7}, "indices" : 4, "material" : 1, "mode" : 4}], "name" : ""}], "nodes" : [{"mesh" : 0, "name" : "Mesh1"}, {"children" : [0], "name" : "ELECTRUM_SET_by_Jonathan_Adler_10"}, {"mesh" : 1, "name" : "Mesh2"}, {"children" : [2], "name" : "ELECTRUM_SET_by_Jonathan_Adler_11"}, {"children" : [1, 3], "name" : "Model"}], "scene" : 0, "scenes" : [{"nodes" : [4]}]}